<?xml version="1.0" encoding="UTF-8" standalone="no"?>
<!DOCTYPE svg PUBLIC "-//W3C//DTD SVG 1.1//EN" "http://www.w3.org/Graphics/SVG/1.1/DTD/svg11.dtd">
<svg version="1.1" xmlns="http://www.w3.org/2000/svg" xmlns:xlink="http://www.w3.org/1999/xlink" preserveAspectRatio="xMidYMid meet" viewBox="0 0 1171 700" width="1171" height="700"><defs><path d="" id="c22t0AZfWx"></path><path d="" id="bjuWcJz8S"></path><path d="" id="b9co7mUBN"></path><path d="" id="eUmH7EdrA"></path><path d="" id="dNuQPCZjI"></path><path d="" id="c5IQZ37I6o"></path><path d="" id="c4YeNuhA6F"></path><path d="" id="jg1KHZKx6"></path><path d="M113.63 364C154.48 343.84 180.02 331.24 190.23 326.2C416.26 214.63 682.18 218.69 904.69 337.12C913.24 341.67 934.61 353.05 968.81 371.25L1059.92 200.42C1000.15 163.92 962.79 141.11 947.85 131.99C700.35 -19.15 390.67 -25.37 137.3 115.7C127.56 121.12 122.21 124.08 121.26 124.58C95.92 137.84 60.69 161.65 15.57 196L113.63 364Z" id="a2L62JCINK"></path><path d="M195.58 559.7C238.85 545.42 265.88 536.49 276.7 532.92C516.06 453.89 778.82 494.93 982.68 643.17C990.52 648.87 1010.1 663.11 1041.44 685.89L1155.43 529.41C1101.32 484.94 1067.5 457.15 1053.98 446.04C829.92 261.93 524.12 212.67 253.58 317.1C243.18 321.12 237.47 323.31 236.46 323.67C209.53 333.28 171.32 351.95 121.86 379.68L195.58 559.7Z" id="baydoMi3u"></path></defs><g><g><g><g><use xlink:href="#c22t0AZfWx" opacity="1" fill-opacity="0" stroke="#000000" stroke-width="1" stroke-opacity="1"></use></g></g><g><g><use xlink:href="#bjuWcJz8S" opacity="1" fill-opacity="0" stroke="#000000" stroke-width="1" stroke-opacity="1"></use></g></g><g><g><use xlink:href="#b9co7mUBN" opacity="1" fill-opacity="0" stroke="#000000" stroke-width="1" stroke-opacity="1"></use></g></g><g><g><use xlink:href="#eUmH7EdrA" opacity="1" fill-opacity="0" stroke="#000000" stroke-width="1" stroke-opacity="1"></use></g></g><g><g><use xlink:href="#dNuQPCZjI" opacity="1" fill-opacity="0" stroke="#000000" stroke-width="1" stroke-opacity="1"></use></g></g><g><g><use xlink:href="#c5IQZ37I6o" opacity="1" fill-opacity="0" stroke="#000000" stroke-width="1" stroke-opacity="1"></use></g></g><g><g><use xlink:href="#c4YeNuhA6F" opacity="1" fill-opacity="0" stroke="#000000" stroke-width="1" stroke-opacity="1"></use></g></g><g><g><use xlink:href="#jg1KHZKx6" opacity="1" fill-opacity="0" stroke="#000000" stroke-width="1" stroke-opacity="1"></use></g></g><g><use xlink:href="#a2L62JCINK" opacity="1" fill="#a3c1ad" fill-opacity="1"></use><g><use xlink:href="#a2L62JCINK" opacity="1" fill-opacity="0" stroke="#a3c1ad" stroke-width="1" stroke-opacity="1"></use></g></g><g><use xlink:href="#baydoMi3u" opacity="1" fill="#002147" fill-opacity="1"></use><g><use xlink:href="#baydoMi3u" opacity="1" fill-opacity="0" stroke="#002147" stroke-width="1" stroke-opacity="1"></use></g></g></g></g></svg>